<?xml version="1.0" encoding="iso-8859-1"?>
<!-- Generator: Adobe Illustrator 16.0.0, SVG Export Plug-In . SVG Version: 6.00 Build 0)  -->
<!DOCTYPE svg PUBLIC "-//W3C//DTD SVG 1.1//EN" "http://www.w3.org/Graphics/SVG/1.1/DTD/svg11.dtd">
<svg version="1.1" xmlns="http://www.w3.org/2000/svg" xmlns:xlink="http://www.w3.org/1999/xlink" x="0px" y="0px" width="512px"
	 height="512px" viewBox="0 0 512 512" style="enable-background:new 0 0 512 512;" xml:space="preserve">
<g id="_x31_032_x2C__Flower_x2C__india_x2C__lotus_x2C__plant">
	<g id="XMLID_192_">
		<path id="XMLID_193_" d="M141.02,267.629c0.944-0.027,1.877-0.038,2.792-0.038c1.579,0,3.156,0.035,4.73,0.087
			c0.37,0.013,0.739,0.029,1.108,0.045c1.429,0.058,2.856,0.136,4.281,0.236c0.129,0.01,0.258,0.017,0.387,0.025
			c24.212,1.781,47.792,9.704,69.817,23.376c-0.09-0.145-0.173-0.291-0.262-0.435c-0.675-1.095-1.336-2.193-1.983-3.295
			c-0.207-0.353-0.419-0.704-0.624-1.058c-0.824-1.428-1.627-2.861-2.404-4.302c-0.157-0.292-0.307-0.585-0.462-0.878
			c-0.624-1.173-1.232-2.35-1.825-3.53c-0.221-0.439-0.438-0.88-0.654-1.32c-0.57-1.162-1.124-2.328-1.663-3.498
			c-0.148-0.32-0.302-0.641-0.448-0.962c-0.665-1.468-1.306-2.942-1.923-4.422c-0.141-0.338-0.274-0.678-0.412-1.017
			c-0.479-1.171-0.942-2.344-1.391-3.521c-0.171-0.448-0.34-0.897-0.506-1.348c-0.456-1.232-0.896-2.469-1.318-3.707
			c-0.095-0.28-0.197-0.559-0.291-0.838c-0.503-1.503-0.979-3.011-1.432-4.523c-0.113-0.378-0.219-0.757-0.329-1.136
			c-0.341-1.171-0.668-2.344-0.979-3.521c-0.121-0.455-0.241-0.91-0.357-1.365c-0.334-1.313-0.651-2.629-0.948-3.948
			c-0.051-0.224-0.107-0.448-0.157-0.672c-0.337-1.53-0.646-3.065-0.933-4.603c-0.077-0.413-0.146-0.828-0.22-1.241
			c-0.208-1.171-0.402-2.344-0.582-3.52c-0.07-0.459-0.141-0.919-0.207-1.379c-0.202-1.417-0.387-2.837-0.546-4.259
			c-0.016-0.139-0.036-0.278-0.051-0.417c-0.17-1.554-0.308-3.111-0.427-4.67c-0.034-0.442-0.06-0.885-0.09-1.328
			c-0.079-1.175-0.143-2.352-0.193-3.53c-0.019-0.459-0.041-0.918-0.056-1.377c-0.051-1.57-0.086-3.141-0.086-4.716
			c0-2.857,0-5.788,0.22-8.776c-24.933-20.078-57.01-30.889-95.453-32.17c1.312,39.093,12.685,71.891,33.849,97.603
			C139.67,267.659,140.345,267.643,141.02,267.629z"/>
		<path id="XMLID_194_" d="M179.785,363.874c1.562-0.437,3.119-0.904,4.673-1.397c0.216-0.069,0.433-0.136,0.648-0.205
			c1.525-0.492,3.047-1.015,4.564-1.562c0.238-0.085,0.475-0.17,0.713-0.257c1.502-0.55,3-1.128,4.493-1.731
			c0.245-0.099,0.491-0.198,0.736-0.299c1.489-0.611,2.973-1.248,4.452-1.911c0.24-0.107,0.479-0.217,0.719-0.325
			c1.486-0.676,2.968-1.376,4.443-2.104c0.219-0.108,0.438-0.219,0.656-0.328c1.496-0.747,2.985-1.517,4.468-2.317
			c0.185-0.1,0.368-0.202,0.552-0.303c1.518-0.826,3.029-1.676,4.532-2.558c0.128-0.076,0.256-0.154,0.384-0.229
			c1.558-0.92,3.109-1.865,4.65-2.844c0.043-0.027,0.086-0.057,0.129-0.084c1.558-0.991,3.107-2.014,4.647-3.064
			c0.067-0.046,0.135-0.09,0.202-0.137c1.51-1.033,3.009-2.1,4.5-3.189c0.134-0.098,0.269-0.193,0.402-0.292
			c1.443-1.062,2.876-2.152,4.301-3.267c0.176-0.138,0.353-0.273,0.529-0.412c1.395-1.099,2.779-2.225,4.154-3.373
			c0.197-0.164,0.395-0.328,0.591-0.493c1.359-1.145,2.708-2.314,4.048-3.507c0.204-0.181,0.407-0.362,0.61-0.545
			c1.333-1.196,2.656-2.416,3.969-3.661c0.085-0.081,0.17-0.162,0.256-0.243c-30.678-28.854-65.496-44.546-101.193-45.587
			c-0.071-0.002-0.142-0.006-0.213-0.008c-1.195-0.033-2.391-0.05-3.588-0.05c-0.895,0-1.788,0.018-2.682,0.035
			c-1.106,0.039-2.173,0.123-3.178,0.324c-0.782,0.157-1.572,0.112-2.315-0.095c-34.28,2.137-67.371,17.683-96.4,45.356
			c31.331,29.868,67.392,45.621,104.574,45.621c8.403,0,16.89-0.814,25.227-2.421c1.693-0.326,3.382-0.69,5.069-1.084
			c0.106-0.025,0.213-0.048,0.319-0.072c1.615-0.382,3.227-0.798,4.835-1.24C179.436,363.968,179.611,363.923,179.785,363.874z"/>
		<path id="XMLID_195_" d="M210.474,215.784c0.029,0.797,0.055,1.594,0.098,2.389c0.025,0.475,0.063,0.948,0.094,1.422
			c0.046,0.713,0.089,1.427,0.146,2.14c0.041,0.505,0.093,1.008,0.14,1.513c0.063,0.68,0.123,1.361,0.195,2.04
			c0.056,0.519,0.123,1.036,0.185,1.554c0.079,0.663,0.156,1.327,0.245,1.989c0.071,0.527,0.152,1.053,0.23,1.58
			c0.095,0.65,0.189,1.301,0.294,1.951c0.086,0.534,0.182,1.066,0.275,1.599c0.111,0.641,0.222,1.281,0.343,1.92
			c0.102,0.537,0.211,1.072,0.32,1.607c0.128,0.634,0.256,1.269,0.393,1.901c0.116,0.536,0.24,1.071,0.363,1.606
			c0.145,0.63,0.29,1.26,0.443,1.888c0.131,0.537,0.27,1.073,0.407,1.609c0.161,0.625,0.323,1.249,0.493,1.873
			c0.146,0.535,0.297,1.068,0.449,1.603c0.178,0.623,0.357,1.245,0.544,1.866c0.16,0.532,0.324,1.063,0.491,1.594
			c0.194,0.62,0.392,1.24,0.595,1.859c0.174,0.53,0.352,1.06,0.533,1.589c0.21,0.615,0.425,1.23,0.644,1.844
			c0.189,0.53,0.381,1.059,0.577,1.587c0.226,0.612,0.458,1.223,0.693,1.833c0.203,0.526,0.408,1.052,0.618,1.577
			c0.243,0.609,0.493,1.219,0.745,1.827c0.217,0.522,0.435,1.044,0.658,1.565c0.261,0.607,0.527,1.215,0.797,1.82
			c0.23,0.519,0.46,1.036,0.697,1.553c0.278,0.606,0.563,1.211,0.849,1.816c0.243,0.513,0.486,1.025,0.735,1.537
			c0.296,0.606,0.6,1.211,0.904,1.815c0.255,0.507,0.509,1.013,0.771,1.519c0.313,0.605,0.637,1.21,0.959,1.814
			c0.267,0.5,0.532,1,0.805,1.499c0.333,0.607,0.676,1.213,1.019,1.818c0.278,0.491,0.553,0.983,0.836,1.473
			c0.353,0.608,0.715,1.215,1.077,1.82c0.289,0.484,0.574,0.969,0.868,1.452c0.375,0.613,0.762,1.225,1.146,1.837
			c0.295,0.469,0.585,0.939,0.886,1.407c0.404,0.628,0.82,1.253,1.234,1.879c0.296,0.448,0.587,0.897,0.889,1.345
			c0.439,0.65,0.892,1.297,1.341,1.943c0.291,0.419,0.576,0.84,0.871,1.257c0.5,0.706,1.014,1.407,1.526,2.109
			c0.26,0.355,0.512,0.713,0.774,1.067c0.777,1.048,1.568,2.092,2.375,3.132c0.216,0.277,0.44,0.553,0.658,0.83
			c0.599,0.763,1.198,1.526,1.812,2.284c0.357,0.44,0.727,0.878,1.088,1.316c0.489,0.593,0.974,1.186,1.472,1.775
			c0.405,0.479,0.823,0.955,1.235,1.433c0.467,0.542,0.93,1.085,1.405,1.624c0.443,0.502,0.897,1,1.346,1.5
			c0.46,0.511,0.916,1.022,1.383,1.531c0.468,0.509,0.945,1.014,1.42,1.52c0.223,0.238,0.446,0.476,0.671,0.713h0.934
			c0.248-0.263,0.495-0.525,0.742-0.789c0.445-0.476,0.895-0.949,1.333-1.427c0.499-0.543,0.986-1.09,1.477-1.636
			c0.42-0.466,0.844-0.932,1.258-1.4c0.5-0.566,0.987-1.138,1.479-1.708c0.389-0.452,0.784-0.901,1.168-1.355
			c0.524-0.62,1.035-1.245,1.549-1.868c0.336-0.407,0.679-0.813,1.011-1.222c0.647-0.8,1.279-1.604,1.91-2.407
			c0.186-0.238,0.379-0.475,0.563-0.712c0.808-1.041,1.6-2.086,2.377-3.136c0.264-0.354,0.516-0.712,0.775-1.068
			c0.512-0.7,1.024-1.4,1.523-2.104c0.301-0.427,0.591-0.855,0.888-1.283c0.444-0.639,0.891-1.276,1.324-1.918
			c0.308-0.456,0.604-0.915,0.906-1.372c0.407-0.615,0.817-1.23,1.214-1.849c0.307-0.477,0.602-0.955,0.902-1.433
			c0.38-0.604,0.762-1.208,1.132-1.815c0.297-0.485,0.584-0.975,0.875-1.462c0.359-0.603,0.72-1.204,1.07-1.809
			c0.287-0.496,0.565-0.994,0.847-1.492c0.338-0.598,0.677-1.196,1.006-1.796c0.277-0.506,0.546-1.013,0.817-1.52
			c0.319-0.598,0.639-1.196,0.949-1.796c0.264-0.51,0.52-1.021,0.777-1.531c0.303-0.601,0.604-1.201,0.897-1.804
			c0.251-0.515,0.495-1.03,0.739-1.546c0.285-0.602,0.568-1.203,0.846-1.808c0.237-0.52,0.469-1.04,0.7-1.562
			c0.269-0.604,0.534-1.207,0.793-1.813c0.224-0.523,0.443-1.047,0.66-1.571c0.252-0.606,0.5-1.212,0.742-1.819
			c0.211-0.528,0.417-1.057,0.621-1.586c0.234-0.607,0.465-1.217,0.69-1.825c0.196-0.531,0.39-1.063,0.579-1.595
			c0.218-0.61,0.431-1.22,0.64-1.832c0.182-0.534,0.362-1.068,0.538-1.603c0.201-0.614,0.397-1.229,0.59-1.845
			c0.168-0.535,0.333-1.069,0.494-1.605c0.186-0.618,0.364-1.236,0.541-1.855c0.153-0.537,0.306-1.075,0.452-1.613
			c0.169-0.62,0.33-1.242,0.49-1.863c0.138-0.539,0.276-1.078,0.408-1.618c0.153-0.625,0.298-1.251,0.441-1.878
			c0.123-0.538,0.248-1.076,0.364-1.615c0.137-0.631,0.265-1.264,0.393-1.897c0.108-0.537,0.219-1.073,0.32-1.61
			c0.12-0.638,0.231-1.278,0.343-1.917c0.093-0.534,0.188-1.067,0.275-1.602c0.104-0.648,0.198-1.298,0.294-1.948
			c0.077-0.527,0.159-1.054,0.229-1.582c0.09-0.662,0.166-1.325,0.246-1.988c0.062-0.518,0.128-1.036,0.184-1.555
			c0.073-0.679,0.133-1.36,0.196-2.04c0.046-0.504,0.099-1.008,0.14-1.513c0.057-0.712,0.1-1.426,0.146-2.139
			c0.03-0.475,0.068-0.948,0.094-1.423c0.043-0.795,0.069-1.592,0.098-2.389c0.015-0.394,0.036-0.786,0.047-1.18
			c0.032-1.192,0.049-2.385,0.049-3.579c0-1.668-0.106-3.365-0.219-5.161c-0.114-1.841-0.231-3.744-0.235-5.691
			c-2.761-33.325-18.214-65.449-45.166-93.722c-26.985,28.307-42.445,60.475-45.179,93.844c-0.006,0.135-0.008,0.271-0.025,0.406
			c-0.014,0.114-0.02,0.229-0.033,0.343c-0.253,3.316-0.385,6.645-0.385,9.982c0,1.194,0.017,2.387,0.049,3.579
			C210.438,214.998,210.46,215.391,210.474,215.784z"/>
		<path id="XMLID_196_" d="M300.161,267.535c-0.61,1.469-1.242,2.932-1.9,4.39c-0.115,0.255-0.237,0.507-0.354,0.761
			c-0.56,1.223-1.136,2.44-1.729,3.654c-0.218,0.446-0.44,0.892-0.663,1.337c-0.556,1.112-1.126,2.221-1.71,3.326
			c-0.193,0.365-0.382,0.731-0.578,1.097c-0.773,1.438-1.569,2.871-2.391,4.298c-0.151,0.263-0.311,0.523-0.464,0.786
			c-0.688,1.18-1.393,2.356-2.113,3.527c-0.123,0.2-0.236,0.402-0.36,0.603c2.299-1.427,4.62-2.769,6.951-4.069
			c0.118-0.065,0.235-0.131,0.354-0.196c4.546-2.522,9.15-4.805,13.81-6.844c0.087-0.038,0.174-0.075,0.261-0.113
			c3.368-1.467,6.764-2.806,10.185-4.018c0.237-0.085,0.475-0.17,0.713-0.253c1.064-0.371,2.131-0.732,3.199-1.078
			c0.218-0.071,0.438-0.137,0.655-0.207c1.984-0.633,3.978-1.223,5.978-1.77c0.327-0.09,0.653-0.185,0.98-0.271
			c0.909-0.242,1.821-0.471,2.733-0.695c0.574-0.142,1.149-0.278,1.726-0.412c0.848-0.198,1.694-0.396,2.544-0.578
			c0.926-0.198,1.854-0.381,2.783-0.561c1.012-0.197,2.024-0.382,3.039-0.557c0.869-0.149,1.739-0.295,2.61-0.43
			c0.66-0.101,1.32-0.197,1.982-0.289c1.004-0.14,2.011-0.266,3.018-0.385c0.496-0.059,0.992-0.125,1.488-0.178
			c1.469-0.157,2.939-0.289,4.412-0.401c0.454-0.034,0.91-0.06,1.365-0.09c1.148-0.077,2.3-0.14,3.451-0.188
			c0.465-0.02,0.93-0.04,1.396-0.055c1.55-0.051,3.102-0.085,4.656-0.085c0.845,0,1.679,0.009,2.52,0.034
			c0.63,0.012,1.26,0.021,1.889,0.041c21.573-25.736,32.949-58.528,33.857-97.588c-38.213,1.282-70.174,12.11-95.11,32.221
			c0.179,2.9,0.278,5.809,0.278,8.726c0,1.568-0.034,3.134-0.085,4.697c-0.016,0.462-0.037,0.924-0.057,1.386
			c-0.049,1.165-0.112,2.328-0.19,3.49c-0.03,0.452-0.057,0.904-0.092,1.354c-0.118,1.554-0.254,3.105-0.423,4.652
			c-0.011,0.099-0.025,0.197-0.036,0.296c-0.162,1.453-0.35,2.903-0.556,4.352c-0.066,0.467-0.139,0.932-0.209,1.398
			c-0.175,1.147-0.363,2.292-0.565,3.436c-0.078,0.441-0.153,0.882-0.235,1.322c-0.284,1.527-0.588,3.052-0.922,4.572
			c-0.038,0.175-0.083,0.349-0.122,0.523c-0.303,1.356-0.628,2.708-0.971,4.058c-0.119,0.469-0.243,0.937-0.366,1.405
			c-0.299,1.128-0.61,2.254-0.936,3.377c-0.124,0.426-0.243,0.852-0.37,1.277c-0.448,1.498-0.916,2.992-1.413,4.481
			c-0.075,0.227-0.158,0.453-0.235,0.68c-0.434,1.279-0.886,2.554-1.354,3.826c-0.17,0.461-0.345,0.922-0.521,1.383
			c-0.423,1.117-0.861,2.23-1.313,3.34C300.486,266.732,300.328,267.135,300.161,267.535z"/>
		<path id="XMLID_197_" d="M375.995,277.831c-0.769,0.229-1.592,0.282-2.405,0.119c-0.991-0.198-1.876-0.285-2.833-0.325
			c-0.856-0.017-1.713-0.034-2.57-0.034c-1.19,0-2.379,0.017-3.566,0.049c-0.504,0.014-1.007,0.04-1.51,0.06
			c-0.677,0.025-1.354,0.047-2.03,0.083c-0.665,0.036-1.329,0.086-1.993,0.132c-0.508,0.034-1.016,0.063-1.523,0.104
			c-0.766,0.062-1.53,0.138-2.294,0.213c-0.4,0.038-0.801,0.072-1.201,0.114c-0.847,0.091-1.692,0.195-2.538,0.303
			c-0.311,0.039-0.621,0.073-0.931,0.114c-0.923,0.123-1.844,0.26-2.764,0.402c-0.227,0.035-0.454,0.066-0.68,0.103
			c-0.989,0.158-1.976,0.33-2.962,0.51c-0.153,0.028-0.308,0.055-0.461,0.083c-1.047,0.195-2.092,0.403-3.136,0.624
			c-0.088,0.019-0.176,0.036-0.264,0.055c-1.104,0.235-2.205,0.484-3.306,0.747c-0.022,0.005-0.045,0.011-0.067,0.016
			c-26.063,6.249-51.01,20.315-73.438,41.575c-0.119,0.112-0.238,0.222-0.355,0.335c0.236,0.225,0.473,0.45,0.71,0.674
			c0.434,0.408,0.867,0.816,1.303,1.22c0.407,0.377,0.817,0.751,1.227,1.124c0.44,0.401,0.882,0.803,1.325,1.198
			c0.404,0.362,0.812,0.72,1.219,1.078c0.45,0.396,0.901,0.793,1.354,1.184c0.404,0.35,0.811,0.693,1.217,1.038
			c0.457,0.388,0.914,0.776,1.373,1.159c0.407,0.34,0.817,0.673,1.227,1.009c0.462,0.377,0.923,0.757,1.386,1.129
			c0.406,0.325,0.813,0.645,1.221,0.966c0.473,0.373,0.943,0.748,1.418,1.114c0.396,0.307,0.795,0.606,1.193,0.909
			c0.487,0.371,0.973,0.744,1.462,1.108c0.381,0.283,0.763,0.559,1.145,0.838c0.511,0.374,1.02,0.751,1.532,1.118
			c0.324,0.232,0.649,0.456,0.974,0.686c2,1.412,4.016,2.774,6.047,4.084c0.344,0.223,0.687,0.449,1.031,0.668
			c0.514,0.327,1.03,0.644,1.547,0.963c0.402,0.25,0.804,0.503,1.207,0.749c0.497,0.302,0.997,0.596,1.496,0.893
			c0.424,0.251,0.847,0.506,1.271,0.753c0.493,0.287,0.988,0.565,1.482,0.847c0.435,0.247,0.869,0.496,1.305,0.738
			c0.488,0.271,0.979,0.536,1.469,0.802c0.444,0.24,0.888,0.483,1.333,0.719c0.487,0.259,0.976,0.51,1.464,0.763
			c0.451,0.233,0.902,0.468,1.354,0.695c0.484,0.245,0.97,0.483,1.456,0.722c0.459,0.227,0.919,0.453,1.38,0.674
			c0.482,0.231,0.967,0.458,1.451,0.684c0.465,0.217,0.93,0.434,1.396,0.646c0.483,0.22,0.968,0.435,1.452,0.648
			c0.47,0.208,0.94,0.414,1.411,0.617c0.482,0.207,0.966,0.411,1.449,0.612c0.475,0.198,0.95,0.395,1.427,0.588
			c0.481,0.195,0.964,0.388,1.446,0.577s0.965,0.376,1.447,0.56c0.479,0.183,0.958,0.363,1.438,0.54
			c0.488,0.18,0.979,0.356,1.469,0.531c0.476,0.17,0.952,0.339,1.43,0.503c0.496,0.172,0.992,0.338,1.489,0.503
			c0.474,0.157,0.946,0.314,1.42,0.467c0.505,0.161,1.01,0.318,1.515,0.474c0.468,0.145,0.936,0.29,1.405,0.429
			c0.515,0.153,1.03,0.3,1.546,0.447c0.461,0.131,0.922,0.264,1.384,0.39c0.525,0.144,1.051,0.28,1.577,0.418
			c0.455,0.118,0.911,0.239,1.367,0.354c0.536,0.134,1.073,0.26,1.609,0.388c0.447,0.105,0.894,0.215,1.341,0.315
			c0.558,0.127,1.117,0.244,1.676,0.363c0.427,0.092,0.854,0.187,1.281,0.273c0.594,0.12,1.188,0.23,1.784,0.344
			c0.395,0.074,0.788,0.153,1.184,0.225c0.658,0.118,1.318,0.226,1.978,0.334c0.333,0.055,0.666,0.115,0.999,0.167
			c0.993,0.155,1.986,0.3,2.981,0.433c5.85,0.779,11.752,1.174,17.541,1.174c37.183,0,73.243-15.753,104.575-45.621
			C443.628,295.439,410.405,279.88,375.995,277.831z"/>
		<path id="XMLID_198_" d="M342.473,376.485c-0.668-0.123-1.335-0.254-2.002-0.386c-0.372-0.073-0.745-0.144-1.117-0.22
			c-0.741-0.153-1.482-0.315-2.223-0.48c-0.293-0.065-0.588-0.126-0.882-0.193c-2.076-0.475-4.146-0.996-6.211-1.563
			c-0.279-0.076-0.558-0.159-0.837-0.238c-0.746-0.21-1.491-0.421-2.235-0.644c-0.368-0.109-0.734-0.225-1.102-0.338
			c-0.654-0.2-1.309-0.401-1.962-0.611c-0.401-0.129-0.802-0.264-1.202-0.396c-0.618-0.204-1.236-0.41-1.854-0.623
			c-0.416-0.144-0.831-0.291-1.247-0.438c-0.6-0.212-1.199-0.427-1.797-0.647c-0.424-0.156-0.847-0.315-1.269-0.475
			c-0.593-0.225-1.184-0.452-1.774-0.684c-0.42-0.165-0.84-0.331-1.26-0.5c-0.594-0.239-1.188-0.483-1.779-0.729
			c-0.414-0.173-0.827-0.345-1.239-0.521c-0.601-0.256-1.2-0.519-1.799-0.782c-0.4-0.177-0.801-0.352-1.2-0.531
			c-0.623-0.281-1.245-0.57-1.866-0.859c-0.371-0.173-0.743-0.343-1.114-0.52c-0.682-0.324-1.362-0.657-2.042-0.992
			c-0.307-0.15-0.614-0.298-0.921-0.45c-0.94-0.471-1.879-0.95-2.814-1.44c-0.044-0.022-0.088-0.044-0.131-0.067
			c-0.986-0.518-1.969-1.047-2.948-1.586c-0.272-0.149-0.542-0.305-0.813-0.456c-0.7-0.391-1.4-0.782-2.098-1.184
			c-0.356-0.205-0.712-0.417-1.067-0.625c-0.61-0.356-1.22-0.714-1.827-1.079c-0.387-0.233-0.773-0.473-1.16-0.709
			c-0.573-0.351-1.146-0.703-1.719-1.063c-0.399-0.25-0.797-0.506-1.195-0.76c-0.557-0.355-1.112-0.713-1.667-1.076
			c-0.404-0.265-0.807-0.531-1.21-0.8c-0.548-0.365-1.095-0.733-1.641-1.104c-0.401-0.274-0.803-0.55-1.203-0.827
			c-0.544-0.377-1.087-0.759-1.629-1.144c-0.398-0.282-0.796-0.564-1.192-0.85c-0.547-0.395-1.092-0.795-1.636-1.196
			c-0.386-0.284-0.771-0.566-1.155-0.854c-0.563-0.422-1.124-0.851-1.684-1.279c-0.362-0.277-0.725-0.552-1.085-0.832
			c-0.604-0.47-1.205-0.948-1.807-1.427c-0.313-0.249-0.626-0.494-0.938-0.746c-0.773-0.624-1.543-1.257-2.312-1.896
			c-0.136-0.112-0.272-0.222-0.408-0.336c-0.905-0.757-1.806-1.524-2.703-2.302c-0.248-0.215-0.493-0.436-0.74-0.651
			c-0.646-0.564-1.29-1.13-1.932-1.705c-0.332-0.298-0.661-0.603-0.992-0.903c-0.553-0.502-1.104-1.004-1.653-1.514
			c-0.361-0.336-0.721-0.677-1.081-1.016c-0.365-0.345-0.733-0.685-1.098-1.032c-0.137,0.13-0.276,0.253-0.413,0.383
			c-1.31,1.244-2.629,2.47-3.959,3.669c-0.211,0.19-0.424,0.378-0.636,0.567c-1.385,1.239-2.779,2.459-4.185,3.649
			c-0.11,0.094-0.222,0.185-0.333,0.277c-1.404,1.184-2.818,2.342-4.241,3.476c-0.125,0.101-0.25,0.203-0.375,0.303
			c-1.427,1.131-2.865,2.231-4.31,3.313c-0.221,0.165-0.44,0.332-0.662,0.496c-1.403,1.04-2.816,2.055-4.236,3.049
			c-0.258,0.18-0.517,0.36-0.775,0.54c-1.414,0.979-2.835,1.934-4.264,2.865c-0.252,0.164-0.506,0.326-0.759,0.489
			c-1.455,0.938-2.916,1.854-4.385,2.742c-0.2,0.121-0.4,0.238-0.6,0.357c-1.537,0.921-3.08,1.821-4.633,2.688
			c-0.061,0.034-0.122,0.066-0.183,0.1c-1.539,0.856-3.086,1.683-4.639,2.485c-0.169,0.087-0.337,0.178-0.507,0.265
			c-1.517,0.777-3.041,1.523-4.57,2.249c-0.252,0.12-0.504,0.241-0.757,0.359c-1.494,0.699-2.993,1.372-4.498,2.021
			c-0.28,0.121-0.56,0.241-0.839,0.359c-1.504,0.64-3.013,1.255-4.527,1.844c-0.262,0.103-0.525,0.201-0.788,0.302
			c-1.549,0.594-3.103,1.165-4.662,1.705c-0.187,0.064-0.374,0.125-0.56,0.188c-1.607,0.55-3.218,1.076-4.833,1.569
			c-0.052,0.016-0.104,0.033-0.157,0.049c-1.63,0.495-3.266,0.955-4.905,1.392c-0.213,0.057-0.427,0.117-0.64,0.173
			c-1.564,0.41-3.133,0.788-4.704,1.144c-0.161,0.036-0.32,0.081-0.481,0.117v30.161h170v-28.624
			c-0.438-0.072-0.874-0.154-1.311-0.23C343.274,376.626,342.873,376.558,342.473,376.485z"/>
	</g>
</g>
<g id="Layer_1">
</g>
</svg>
